<svg xmlns="http://www.w3.org/2000/svg" width="64" height="64" viewBox="0 0 24 24">
    <g fill="none" stroke="#0475ef" stroke-linecap="round" stroke-linejoin="round" stroke-width="2">
        <path stroke-dasharray="64" stroke-dashoffset="64"
            d="M12 3c4.97 0 9 4.03 9 9c0 4.97 -4.03 9 -9 9c-4.97 0 -9 -4.03 -9 -9c0 -4.97 4.03 -9 9 -9Z">
            <animate fill="freeze" attributeName="stroke-dashoffset" dur="1.11s" values="64;0" />
        </path>
        <path stroke-dasharray="8" stroke-dashoffset="8" d="M12 12h-5.5">
            <animate fill="freeze" attributeName="stroke-dashoffset" begin="2.405s" dur="0.37s"
                values="8;0" />
            <animateTransform fill="freeze" attributeName="transform" begin="2.405s" dur="1.48s"
                type="rotate" values="0 12 12;165 12 12" />
        </path>
    </g>
    <g fill="#0475ef">
        <path fill-opacity="0"
            d="M12 21C9.41 21 7.15 20.79 5.94 19L12 21L18.06 19C16.85 20.79 14.59 21 12 21Z">
            <animate fill="freeze" attributeName="d" begin="1.11s" dur="0.74s"
                values="M12 21C9.41 21 7.15 20.79 5.94 19L12 21L18.06 19C16.85 20.79 14.59 21 12 21Z;M12 16C9.41 16 7.15 17.21 5.94 19L12 21L18.06 19C16.85 17.21 14.59 16 12 16Z" />
            <set fill="freeze" attributeName="fill-opacity" begin="1.11s" to="1" />
        </path>
        <circle cx="7" cy="12" r="0" transform="rotate(15 12 12)">
            <animate fill="freeze" attributeName="r" begin="1.665s" dur="0.37s" values="0;1" />
        </circle>
        <circle cx="7" cy="12" r="0" transform="rotate(65 12 12)">
            <animate fill="freeze" attributeName="r" begin="1.758s" dur="0.37s" values="0;1" />
        </circle>
        <circle cx="7" cy="12" r="0" transform="rotate(115 12 12)">
            <animate fill="freeze" attributeName="r" begin="1.85s" dur="0.37s" values="0;1" />
        </circle>
        <circle cx="7" cy="12" r="0" transform="rotate(165 12 12)">
            <animate fill="freeze" attributeName="r" begin="1.943s" dur="0.37s" values="0;1" />
        </circle>
        <circle cx="12" cy="12" r="0">
            <animate fill="freeze" attributeName="r" begin="2.405s" dur="0.37s" values="0;2" />
        </circle>
    </g>
</svg>