<svg viewBox="0 0 24 24" width="64" height="64" xmlns="http://www.w3.org/2000/svg">
    <g fill="none" stroke="#0475ef" stroke-linecap="round" stroke-linejoin="round" stroke-width="2">
        <path stroke-dasharray="10" stroke-dashoffset="10" d="M3 5l2 2l4 -4">
            <animate fill="freeze" attributeName="stroke-dashoffset" dur="0.37s" values="10;0" />
        </path>
        <path stroke-dasharray="10" stroke-dashoffset="10" d="M3 12l2 2l4 -4">
            <animate fill="freeze" attributeName="stroke-dashoffset" begin="0.74s" dur="0.37s"
                values="10;0" />
        </path>
        <path stroke-dasharray="10" stroke-dashoffset="10" d="M3 19l2 2l4 -4">
            <animate fill="freeze" attributeName="stroke-dashoffset" begin="1.48s" dur="0.37s"
                values="10;0" />
        </path>
        <g fill="#0475ef" fill-opacity="0" stroke-dasharray="24" stroke-dashoffset="24"
            stroke-width="1">
            <path
                d="M11.5 5c0 -0.83 0.67 -1.5 1.5 -1.5h6c0.83 0 1.5 0.67 1.5 1.5c0 0.83 -0.67 1.5 -1.5 1.5h-6c-0.83 0 -1.5 -0.67 -1.5 -1.5Z">
                <animate fill="freeze" attributeName="fill-opacity" begin="2.405s" dur="0.925s"
                    values="0;1" />
                <animate fill="freeze" attributeName="stroke-dashoffset" begin="0.37s" dur="0.37s"
                    values="24;0" />
            </path>
            <path
                d="M11.5 12c0 -0.83 0.67 -1.5 1.5 -1.5h6c0.83 0 1.5 0.67 1.5 1.5c0 0.83 -0.67 1.5 -1.5 1.5h-6c-0.83 0 -1.5 -0.67 -1.5 -1.5Z">
                <animate fill="freeze" attributeName="fill-opacity" begin="3.145s" dur="0.925s"
                    values="0;1" />
                <animate fill="freeze" attributeName="stroke-dashoffset" begin="1.11s" dur="0.37s"
                    values="24;0" />
            </path>
            <path
                d="M11.5 19c0 -0.83 0.67 -1.5 1.5 -1.5h6c0.83 0 1.5 0.67 1.5 1.5c0 0.83 -0.67 1.5 -1.5 1.5h-6c-0.83 0 -1.5 -0.67 -1.5 -1.5Z">
                <animate fill="freeze" attributeName="fill-opacity" begin="3.885s" dur="0.925s"
                    values="0;1" />
                <animate fill="freeze" attributeName="stroke-dashoffset" begin="1.85s" dur="0.37s"
                    values="24;0" />
            </path>
        </g>
    </g>
</svg>