<?xml version="1.0" encoding="utf-8"?>
<!-- Generator: Adobe Illustrator 25.1.0, SVG Export Plug-In . SVG Version: 6.00 Build 0)  -->
<svg version="1.1" id="Capa_1" xmlns="http://www.w3.org/2000/svg" xmlns:xlink="http://www.w3.org/1999/xlink" x="0px" y="0px"
	 viewBox="0 0 395 237" style="enable-background:new 0 0 395 237;" xml:space="preserve">
<style type="text/css">
	.st0{fill:#1D1D1B;stroke:#1D1D1B;stroke-width:0.1485;}
	.st1{fill:#6F6F6E;}
	.st2{fill:#20478C;}
</style>
<g>
	<g>
		<path class="st0" d="M12.51,220.43v-57.87h8.68v57.87H12.51z"/>
		<path class="st0" d="M81.12,162.56v57.87h-7.48l-37.63-44.32v44.32h-8.69v-57.87h7.91l37.19,44.06v-44.06H81.12z"/>
		<path class="st0" d="M104,162.56c11.56,0,13.03,0.17,18.6,2.78c9.65,4.43,16.17,14.86,16.17,25.98c0,9.73-4.78,18.68-12.6,23.9
			c-5.65,3.74-11.74,5.22-21.12,5.22H85.75v-57.87H104z M105.13,212.78c7.48,0,11.82-1.12,15.9-3.91
			c5.56-3.82,8.78-10.25,8.78-17.64c0-8.33-4.08-15.29-10.78-18.5c-4.34-2.09-6.6-2.52-14.86-2.52h-9.73v42.58H105.13z"/>
		<path class="st0" d="M151.16,162.56v35.45c0,6.08,0.87,8.43,4.17,11.38c2.95,2.69,6.6,4,11.73,3.91c5.04,0,8.78-1.21,11.64-3.91
			c3.3-3.05,4.17-5.3,4.17-11.29v-35.54h8.69v35.54c0,8.25-1.91,13.03-6.69,17.03c-4.61,3.82-11.13,6-17.9,6
			c-6.69,0-13.3-2.18-17.81-6c-4.87-4.09-6.7-8.78-6.7-17.03v-35.54H151.16z"/>
		<path class="st0" d="M205.45,162.56l18.78,23.46l18.5-23.46h8v57.87h-8.69v-44.32l-17.81,22.68l-18.26-22.68v44.32h-8.68v-57.87
			H205.45z"/>
		<path class="st0" d="M255.16,191.49c0-17.12,13.04-29.64,30.85-29.64c17.91,0,30.86,12.52,30.86,29.64
			c0,17.21-12.95,29.64-30.86,29.64C268.2,221.13,255.16,208.7,255.16,191.49z M308,191.49c0-12.69-8.95-21.38-22.08-21.38
			c-13.04,0-21.82,8.6-21.82,21.38c0,12.77,8.78,21.38,21.9,21.38C299.05,212.87,308.09,204.18,308,191.49z"/>
		<path class="st0" d="M374.35,162.56v57.87h-7.47l-37.63-44.32v44.32h-8.69v-57.87h7.91l37.2,44.06v-44.06H374.35z"/>
	</g>
	<g>
		<path class="st1" d="M154.05,151.3c-2.23,0-4.43-0.6-6.4-1.77c-2.9-1.72-4.95-4.45-5.79-7.7L124.78,75.2
			c-1.72-6.73,2.35-13.6,9.07-15.32l49.25-12.62c3.25-0.83,6.64-0.35,9.54,1.37c2.9,1.72,4.95,4.45,5.79,7.7l17.08,66.63
			c0.83,3.25,0.35,6.64-1.37,9.54c-1.72,2.9-4.45,4.95-7.7,5.79l-49.25,12.62C156.15,151.16,155.1,151.3,154.05,151.3z
			 M186.22,58.13c-0.1,0-0.21,0.01-0.32,0.04L136.65,70.8c-0.69,0.18-1.13,0.92-0.95,1.61l17.08,66.62c0.12,0.45,0.43,0.7,0.61,0.8
			c0.18,0.11,0.55,0.26,0.99,0.15l49.25-12.62c0.45-0.12,0.7-0.43,0.8-0.61c0.13-0.22,0.26-0.57,0.15-0.99l-17.08-66.63
			c-0.12-0.45-0.43-0.69-0.61-0.8C186.76,58.24,186.52,58.13,186.22,58.13z"/>
		<path class="st2" d="M156.42,121.91c-2.13-0.66-4.05-1.89-5.58-3.59c-2.26-2.5-3.4-5.73-3.23-9.08l3.56-68.69
			c0.36-6.93,6.3-12.28,13.23-11.92l50.77,2.63c3.35,0.17,6.44,1.65,8.7,4.15c2.26,2.5,3.4,5.73,3.23,9.08l-3.56,68.69
			c-0.17,3.35-1.65,6.44-4.15,8.69c-2.5,2.26-5.73,3.4-9.08,3.23l-50.77-2.63C158.46,122.41,157.42,122.23,156.42,121.91z
			 M214.9,42.58c-0.09-0.03-0.2-0.05-0.31-0.06l-50.77-2.63c-0.71-0.04-1.35,0.54-1.39,1.25l-3.56,68.69
			c-0.02,0.47,0.2,0.79,0.34,0.95c0.14,0.16,0.45,0.41,0.9,0.44l50.77,2.63c0.47,0.02,0.79-0.2,0.95-0.35
			c0.19-0.17,0.42-0.46,0.44-0.9l3.56-68.69c0.02-0.46-0.2-0.79-0.34-0.95C215.38,42.85,215.19,42.67,214.9,42.58z"/>
		<path class="st0" d="M169.18,96c-1.81-1.3-3.24-3.07-4.16-5.18c-1.35-3.09-1.42-6.51-0.19-9.63l25.1-64.04
			c2.54-6.46,9.86-9.66,16.32-7.13l47.33,18.56c3.12,1.22,5.59,3.6,6.94,6.69c1.35,3.09,1.42,6.51,0.19,9.63l-25.1,64.03
			c-1.22,3.12-3.6,5.59-6.69,6.94c-3.09,1.35-6.51,1.42-9.63,0.19l-47.33-18.56C170.96,97.12,170.03,96.61,169.18,96z M249.75,39.23
			c-0.08-0.06-0.17-0.11-0.28-0.15l-47.33-18.56c-0.67-0.26-1.45,0.08-1.71,0.75l-25.1,64.04c-0.17,0.43-0.06,0.82,0.03,1.01
			c0.08,0.19,0.3,0.53,0.72,0.7l47.33,18.56c0.44,0.17,0.82,0.06,1.01-0.03c0.23-0.1,0.54-0.31,0.7-0.72l25.1-64.04
			c0.17-0.43,0.06-0.82-0.03-1.01C250.13,39.64,249.99,39.41,249.75,39.23z"/>
	</g>
</g>
</svg>
